<svg xmlns="http://www.w3.org/2000/svg" id="CL2OrientedArea-figure" width="260" height="260" viewBox="0 0 260 260">
  <defs>
    <clipPath id="CL2OrientedArea-clipPath-0">
      <rect x="5.0" y="5.0" width="250.0" height="250.0"/>
    </clipPath>
    <clipPath id="CL2OrientedArea-clipPath-1">
      <rect x="5.0" y="5.0" width="250.0" height="250.0"/>
    </clipPath>
    <marker id="CL2OrientedArea-arrow-head-end-3_None_24_60-red" markerWidth="13.5" markerHeight="12.0" markerUnits="userSpaceOnUse" orient="auto-start-reverse" refX="9.8" refY="6.0">
      <path d="M 13.5 6.0L 0.0 12.0L 2.6 7.5L 2.6 4.5L 0.0 0.0Z" fill="red" stroke="none"/>
    </marker>
    <marker id="CL2OrientedArea-arrow-head-end-3_None_24_60-red-outline" markerWidth="17.5" markerHeight="16.0" markerUnits="userSpaceOnUse" orient="auto-start-reverse" refX="11.8" refY="8.0">
      <path d="M 16.3 9.8 L 2.8 15.8 A 2 2 0 0 1 0.0 14.0 L 0.0 2.0 A 2 2 0 0 1 2.8 0.2 L 16.3 6.2 A 2 2 0 0 1 16.3 9.8 Z" fill="white" stroke="none"/>
    </marker>
    <marker id="CL2OrientedArea-arrow-head-end-3_None_24_60-blue" markerWidth="13.5" markerHeight="12.0" markerUnits="userSpaceOnUse" orient="auto-start-reverse" refX="9.8" refY="6.0">
      <path d="M 13.5 6.0L 0.0 12.0L 2.6 7.5L 2.6 4.5L 0.0 0.0Z" fill="blue" stroke="none"/>
    </marker>
    <marker id="CL2OrientedArea-arrow-head-end-3_None_24_60-blue-outline" markerWidth="17.5" markerHeight="16.0" markerUnits="userSpaceOnUse" orient="auto-start-reverse" refX="11.8" refY="8.0">
      <path d="M 16.3 9.8 L 2.8 15.8 A 2 2 0 0 1 0.0 14.0 L 0.0 2.0 A 2 2 0 0 1 2.8 0.2 L 16.3 6.2 A 2 2 0 0 1 16.3 9.8 Z" fill="white" stroke="none"/>
    </marker>
    <marker id="CL2OrientedArea-arrow-head-end-4_None_24_60-darkslategray" markerWidth="18.0" markerHeight="16.0" markerUnits="userSpaceOnUse" orient="auto-start-reverse" refX="13.1" refY="8.0">
      <path d="M 18.0 8.0L 0.0 16.0L 3.5 10.0L 3.5 6.0L 0.0 0.0Z" fill="darkslategray" stroke="none"/>
    </marker>
    <marker id="CL2OrientedArea-arrow-head-end-4_None_24_60-darkslategray-outline" markerWidth="22.0" markerHeight="20.0" markerUnits="userSpaceOnUse" orient="auto-start-reverse" refX="15.1" refY="10.0">
      <path d="M 20.8 11.8 L 2.8 19.8 A 2 2 0 0 1 0.0 18.0 L 0.0 2.0 A 2 2 0 0 1 2.8 0.2 L 20.8 8.2 A 2 2 0 0 1 20.8 11.8 Z" fill="white" stroke="none"/>
    </marker>
  </defs>
  <path id="CL2OrientedArea-parallelogram" d="M 24.2 235.8 L 178.1 197.3 L 255.0 43.5 L 101.2 81.9 Z" stroke="none" stroke-width="2" fill="rgb(191,179,219)" clip-path="url(#CL2OrientedArea-clipPath-1)"/>
  <path id="CL2OrientedArea-v1" stroke="red" stroke-width="3" fill="none" marker-end="url(#CL2OrientedArea-arrow-head-end-3_None_24_60-red)" d="M 24.2 235.8 L 174.5 198.2"/>
  <path id="CL2OrientedArea-v2" stroke="blue" stroke-width="3" fill="none" marker-end="url(#CL2OrientedArea-arrow-head-end-3_None_24_60-blue)" d="M 24.2 235.8 L 99.5 85.2"/>
  <path id="CL2OrientedArea-v1-translate" stroke="red" stroke-width="3" fill="none" marker-end="url(#CL2OrientedArea-arrow-head-end-3_None_24_60-red)" d="M 101.2 81.9 L 251.4 44.4"/>
  <path id="CL2OrientedArea-v2-translate" stroke="blue" stroke-width="3" fill="none" marker-end="url(#CL2OrientedArea-arrow-head-end-3_None_24_60-blue)" d="M 178.1 197.3 L 253.4 46.7"/>
  <path id="CL2OrientedArea-handedness" d="M 164.6 125.2 L 163.8 123.9 L 163.0 122.7 L 162.0 121.5 L 161.1 120.3 L 160.0 119.2 L 158.9 118.2 L 157.8 117.2 L 156.6 116.3 L 155.3 115.4 L 154.0 114.6 L 152.7 113.9 L 151.3 113.3 L 150.0 112.7 L 148.5 112.2 L 147.1 111.8 L 145.6 111.4 L 144.1 111.1 L 142.6 110.9 L 141.1 110.8 L 139.6 110.8 L 138.1 110.8 L 136.6 110.9 L 135.1 111.1 L 133.6 111.4 L 132.1 111.8 L 130.7 112.2 L 129.3 112.7 L 127.9 113.3 L 126.5 113.9 L 125.2 114.6 L 123.9 115.4 L 122.7 116.3 L 121.5 117.2 L 120.3 118.2 L 119.2 119.2 L 118.2 120.3 L 117.2 121.5 L 116.3 122.7 L 115.4 123.9 L 114.6 125.2 L 113.9 126.5 L 113.3 127.9 L 112.7 129.3 L 112.2 130.7 L 111.8 132.1 L 111.4 133.6 L 111.1 135.1 L 110.9 136.6 L 110.8 138.1 L 110.8 139.6 L 110.8 141.1 L 110.9 142.6 L 111.1 144.1 L 111.4 145.6 L 111.8 147.1 L 112.2 148.5 L 112.7 150.0 L 113.3 151.3 L 113.9 152.7 L 114.6 154.0 L 115.4 155.3 L 116.3 156.6 L 117.2 157.8 L 118.2 158.9 L 119.2 160.0 L 120.3 161.1 L 121.5 162.0 L 122.7 163.0 L 123.9 163.8 L 125.2 164.6 L 126.5 165.3 L 127.9 166.0 L 129.3 166.5 L 130.7 167.0 L 132.1 167.5 L 133.6 167.8 L 135.1 168.1 L 136.6 168.3 L 138.1 168.4 L 139.6 168.5 L 141.1 168.4 L 142.6 168.3 L 144.1 168.1 L 145.6 167.8 L 147.1 167.5 L 148.5 167.0 L 150.0 166.5 L 151.3 166.0 L 152.7 165.3 L 154.0 164.6 L 155.3 163.8 L 156.6 163.0 L 157.8 162.0 L 158.9 161.1 L 160.0 160.0 L 161.1 158.9 L 162.0 157.8 L 163.0 156.6 L 163.8 155.3" stroke="darkslategray" stroke-width="4" fill="none" marker-end="url(#CL2OrientedArea-arrow-head-end-4_None_24_60-darkslategray)"/>
</svg>
