<svg xmlns="http://www.w3.org/2000/svg" id="CL2Vectors-figure" width="260" height="260" viewBox="0 0 260 260">
  <defs>
    <clipPath id="CL2Vectors-clipPath-0">
      <rect x="5.0" y="5.0" width="250.0" height="250.0"/>
    </clipPath>
    <clipPath id="CL2Vectors-clipPath-1">
      <rect x="5.0" y="5.0" width="250.0" height="250.0"/>
    </clipPath>
    <marker id="CL2Vectors-arrow-head-end-3_None_24_60-red" markerWidth="13.5" markerHeight="12.0" markerUnits="userSpaceOnUse" orient="auto-start-reverse" refX="9.8" refY="6.0">
      <path d="M 13.5 6.0L 0.0 12.0L 2.6 7.5L 2.6 4.5L 0.0 0.0Z" fill="red" stroke="none"/>
    </marker>
    <marker id="CL2Vectors-arrow-head-end-3_None_24_60-red-outline" markerWidth="17.5" markerHeight="16.0" markerUnits="userSpaceOnUse" orient="auto-start-reverse" refX="11.8" refY="8.0">
      <path d="M 16.3 9.8 L 2.8 15.8 A 2 2 0 0 1 0.0 14.0 L 0.0 2.0 A 2 2 0 0 1 2.8 0.2 L 16.3 6.2 A 2 2 0 0 1 16.3 9.8 Z" fill="white" stroke="none"/>
    </marker>
    <marker id="CL2Vectors-arrow-head-end-3_None_24_60-blue" markerWidth="13.5" markerHeight="12.0" markerUnits="userSpaceOnUse" orient="auto-start-reverse" refX="9.8" refY="6.0">
      <path d="M 13.5 6.0L 0.0 12.0L 2.6 7.5L 2.6 4.5L 0.0 0.0Z" fill="blue" stroke="none"/>
    </marker>
    <marker id="CL2Vectors-arrow-head-end-3_None_24_60-blue-outline" markerWidth="17.5" markerHeight="16.0" markerUnits="userSpaceOnUse" orient="auto-start-reverse" refX="11.8" refY="8.0">
      <path d="M 16.3 9.8 L 2.8 15.8 A 2 2 0 0 1 0.0 14.0 L 0.0 2.0 A 2 2 0 0 1 2.8 0.2 L 16.3 6.2 A 2 2 0 0 1 16.3 9.8 Z" fill="white" stroke="none"/>
    </marker>
  </defs>
  <path id="CL2Vectors-v1" stroke="red" stroke-width="3" fill="none" marker-end="url(#CL2Vectors-arrow-head-end-3_None_24_60-red)" d="M 24.2 235.8 L 174.5 198.2"/>
  <path id="CL2Vectors-v2" stroke="blue" stroke-width="3" fill="none" marker-end="url(#CL2Vectors-arrow-head-end-3_None_24_60-blue)" d="M 24.2 235.8 L 99.5 85.2"/>
</svg>
